<svg xmlns:dc="http://purl.org/dc/elements/1.1/" xmlns:cc="http://creativecommons.org/ns#" xmlns:rdf="http://www.w3.org/1999/02/22-rdf-syntax-ns#" xmlns:svg="http://www.w3.org/2000/svg" xmlns="http://www.w3.org/2000/svg" xmlns:sodipodi="http://sodipodi.sourceforge.net/DTD/sodipodi-0.dtd" xmlns:inkscape="http://www.inkscape.org/namespaces/inkscape" viewBox="0 0 26.458333 33.0729175" version="1.1" x="0px" y="0px"><g transform="translate(0,-270.54165)"><path style="color:#000000;font-style:normal;font-variant:normal;font-weight:normal;font-stretch:normal;font-size:medium;line-height:normal;font-family:sans-serif;font-variant-ligatures:normal;font-variant-position:normal;font-variant-caps:normal;font-variant-numeric:normal;font-variant-alternates:normal;font-feature-settings:normal;text-indent:0;text-align:start;text-decoration:none;text-decoration-line:none;text-decoration-style:solid;text-decoration-color:#000000;letter-spacing:normal;word-spacing:normal;text-transform:none;writing-mode:lr-tb;direction:ltr;text-orientation:mixed;dominant-baseline:auto;baseline-shift:baseline;text-anchor:start;white-space:normal;shape-padding:0;clip-rule:nonzero;display:inline;overflow:visible;visibility:visible;opacity:1;isolation:auto;mix-blend-mode:normal;color-interpolation:sRGB;color-interpolation-filters:linearRGB;solid-color:#000000;solid-opacity:1;vector-effect:none;fill:#000000;fill-opacity:1;fill-rule:nonzero;stroke:none;stroke-width:0.46294051;stroke-linecap:round;stroke-linejoin:miter;stroke-miterlimit:4;stroke-dasharray:none;stroke-dashoffset:0;stroke-opacity:1;paint-order:stroke fill markers;color-rendering:auto;image-rendering:auto;shape-rendering:auto;text-rendering:auto;enable-background:accumulate" d="m 11.738624,275.48471 c -0.923156,0 -1.676348,0.75321 -1.676349,1.67636 0,0.12028 0.0137,0.23755 0.03797,0.35082 l -0.02622,0.0388 0.0434,0.0285 c 0.01797,0.0695 0.03918,0.13726 0.06556,0.20299 l -0.134722,-0.0628 0.033,-0.0285 -0.1066937,-0.12432 0.084089,-0.0195 -0.03752,-0.16908 -0.3399721,0.0786 0.039327,0.16908 0.2337306,-0.0543 -0.2491018,0.21474 0.1130227,0.13157 0.023057,-0.0199 -0.057418,0.0849 0.1451208,0.0959 0.016279,-0.024 0.098103,0.0461 0.144668,-0.30608 c 0.250908,0.61086 0.851703,1.04433 1.550669,1.04433 0.526318,0 0.996574,-0.24594 1.304281,-0.62795 l 0.10172,0.30291 0.165918,-0.0561 -0.113023,-0.33002 -0.124325,0.043 c 0.08028,-0.10596 0.148906,-0.2212 0.202537,-0.3445 l 0.0072,-0.01 -0.0018,-9.6e-4 c 0.08587,-0.20143 0.133366,-0.42262 0.133366,-0.65463 -1e-6,-0.92315 -0.752743,-1.67635 -1.675898,-1.67635 z m 0,0.4634 c 0.672964,0 1.214765,0.53999 1.214767,1.21296 -2e-6,0.67296 -0.541803,1.21477 -1.214767,1.21477 -0.672964,0 -1.213408,-0.54181 -1.21341,-1.21477 2e-6,-0.67297 0.540446,-1.21296 1.21341,-1.21296 z m -2.2265438,1.54615 -0.3381634,0.0787 0.039331,0.16908 0.3381634,-0.0769 z m -0.5072453,0.11799 -0.3386157,0.0769 0.039331,0.16908 0.3381636,-0.0769 z m -0.5076973,0.11619 -0.3381637,0.0769 0.039332,0.16908 0.3381634,-0.0769 z m -0.5076976,0.11619 -0.3381635,0.0769 0.039332,0.16908 0.3381634,-0.0769 z m 1.5841245,0.0547 -0.2631166,0.2274 0.1125707,0.13156 0.263568,-0.2274 z m -7.7691719,0.015 c -0.2668463,0 -0.4814762,0.21508 -0.4814762,0.48193 v 0.78256 c 0,0.26685 0.2146299,0.48193 0.4814762,0.48193 h 2.3784471 c 0.2668463,0 0.4814761,-0.21508 0.4814761,-0.48193 v -0.19936 l 0.036167,0.0732 0.1229686,-0.0592 0.00498,0.005 0.010398,-0.0122 0.017179,-0.008 -0.00361,-0.008 0.090871,-0.10398 -0.1333666,-0.11619 0.1722464,-0.0393 -0.03888,-0.16908 -0.2789397,0.0633 v -0.20887 c 0,-0.26685 -0.2146298,-0.48193 -0.4814761,-0.48193 z m 11.6155554,0.009 -0.106242,0.13835 0.277132,0.21203 0.103981,-0.13879 z m -5.9377533,0.0375 -0.3381634,0.0769 0.039332,0.16908 0.3381637,-0.0769 z m -0.5076973,0.11619 -0.3381637,0.0769 0.037523,0.16908 0.339972,-0.0769 z m 2.7134458,0.0498 -0.1948508,0.28844 0.1455731,0.0959 0.064196,-0.0959 -0.038876,0.0823 0.1573272,0.0751 0.148738,-0.31466 -0.1573281,-0.0732 -0.00949,0.0199 z m -3.2206913,0.0664 -0.3381634,0.0769 0.037523,0.16908 0.3381636,-0.0769 z m 2.7116378,0.0461 -0.2631167,0.2274 0.114379,0.13156 0.2631166,-0.2274 z m 4.6542693,0.002 -0.105789,0.13833 0.275323,0.21023 0.105789,-0.13699 z m -7.8736044,0.0683 -0.3381637,0.0769 0.037523,0.16908 0.3386154,-0.0769 z m -0.5072453,0.11619 -0.3399719,0.0769 0.039331,0.16908 0.3381634,-0.0769 z m 3.9453922,0.13336 -0.194851,0.28843 0.145121,0.0959 0.1930424,-0.28708 z m 4.8491205,0 -0.105789,0.13654 0.27487,0.21203 0.106242,-0.13835 z m -5.4626072,0.0203 -0.2613081,0.2274 0.1125705,0.13156 0.2631166,-0.22741 z m 4.5810302,0.0429 -0.164109,0.0561 0.111215,0.32822 0.164108,-0.0547 z m -3.774501,0.0321 -0.1487377,0.31465 0.1573272,0.0733 0.1487379,-0.31239 z m 8.194588,0.13517 c -0.773646,0 -1.425973,0.52949 -1.617579,1.24415 l -0.268542,-0.20706 -0.105789,0.13835 0.274871,0.21022 0.09448,-0.12207 c -0.03376,0.13228 -0.05334,0.27024 -0.05334,0.41276 0,0.0735 0.0061,0.14544 0.01537,0.21656 l -0.07369,-0.0732 -0.244129,0.24775 0.124777,0.12161 0.206153,-0.21067 c 0.0065,0.0355 0.01479,0.0703 0.02351,0.10488 l -0.0538,0.15869 0.117092,0.0403 c 0.244007,0.62479 0.851263,1.0701 1.560616,1.0701 0.723054,0 1.34083,-0.46287 1.575534,-1.10672 l 1.935399,1.72744 -0.465201,-0.1076 a 0.11574669,0.11574669 0 0 0 -0.0633,0.22243 0.11574669,0.11574669 0 0 0 0.01175,0.002 l 0.81557,0.18852 0.0023,4.5e-4 a 0.11574669,0.11574669 0 0 0 0.01085,0.002 l -4.52e-4,9e-4 a 0.11574669,0.11574669 0 0 0 0.01175,0.003 0.11574669,0.11574669 0 0 0 0.11664,-0.18084 0.11574669,0.11574669 0 0 1 0,-4.5e-4 l -0.217907,-0.78392 a 0.11584375,0.11584375 0 0 0 -0.222881,0.0628 l 0.131559,0.47514 -2.010447,-1.79524 c 0.02956,-0.12415 0.04702,-0.25269 0.04702,-0.38564 -3e-6,-0.92315 -0.755005,-1.67635 -1.678159,-1.67635 z m -3.124848,0.0854 -0.106241,0.13833 0.275322,0.21023 0.10579,-0.13653 z m -6.2691357,0.0443 -0.2631164,0.2274 0.1125704,0.13156 0.2631167,-0.2274 z m -3.3183428,0.0615 -0.1143789,0.13155 0.2613084,0.22921 0.1143787,-0.13155 z m 4.0340018,0.0104 -0.1930425,0.28888 0.1437648,0.0972 0.1930424,-0.28889 z m 4.4255107,0.12477 -0.164108,0.0547 0.111214,0.32958 0.164109,-0.0566 z m -4.1637503,0.0104 -0.1487376,0.3142 0.1568752,0.0737 0.1487376,-0.31467 z m -4.4359102,0.007 -0.1555191,0.0769 0.1519024,0.31104 0.155519,-0.0769 z m 10.1394815,0.0596 -0.104434,0.13653 0.275324,0.21203 0.105788,-0.13834 z m 2.712993,0.0597 c 0.672965,0 1.215218,0.54045 1.215219,1.21341 2e-6,0.67296 -0.542253,1.21295 -1.215219,1.21295 -0.672966,0 -1.212961,-0.53999 -1.212958,-1.21295 2e-6,-0.67296 0.539994,-1.21341 1.212958,-1.21341 z m -9.7886585,0.009 -0.2631167,0.22559 0.1125707,0.13155 0.2631164,-0.22559 z m -2.5326099,0.0633 -0.1125704,0.13157 0.2594999,0.22875 0.1148307,-0.13156 z m 3.3527017,0.099 -0.1930424,0.28889 0.1433125,0.0972 0.1930426,-0.28843 z m 6.6687837,0.0854 -0.10579,0.13834 0.274872,0.21203 0.106241,-0.13834 z m -6.3392098,0.0891 -0.1487378,0.3124 0.1573276,0.0755 0.1487377,-0.31465 z m -3.9847241,0.002 -0.1555191,0.0769 0.1541629,0.31057 0.155067,-0.0751 z m 2.4403835,9.5e-4 -0.2635686,0.2274 0.114831,0.12975 0.2631166,-0.22559 z m 6.0982454,0.007 -0.164108,0.0565 0.110762,0.32822 0.164108,-0.0547 z m -7.8428617,0.0601 -0.114831,0.13155 0.2599519,0.22876 0.114379,-0.13156 z m 2.6686891,0.18761 -0.1930427,0.28888 0.1437647,0.0977 0.1930425,-0.28889 z m -1.3191996,0.0854 -0.2613081,0.22741 0.1130224,0.13156 0.2631167,-0.2274 z m -0.9584314,0.0701 -0.114379,0.13156 0.2613081,0.22921 0.114379,-0.13156 z m -0.8558071,0.0565 -0.1573273,0.0769 0.1537106,0.31104 0.155519,-0.0769 z m 3.5317296,0 -0.1487377,0.3142 0.1573273,0.0737 0.1487377,-0.31284 z m 4.9431551,0.0343 -0.164109,0.0561 0.111214,0.32822 0.164108,-0.0565 z m -7.0535128,0.17902 -0.12975,0.11212 -0.044304,-0.0385 -0.114831,0.13156 0.027125,0.024 0.1116663,0.12975 0.018536,-0.0158 0.1044329,0.0914 0.1143787,-0.13201 -0.085445,-0.0746 0.1112142,-0.0959 z m 1.421824,0.008 -0.1930424,0.28843 0.1433127,0.0976 0.1930424,-0.28889 z m -2.6144383,0.24594 -0.1555189,0.0769 0.1519024,0.31285 0.1573273,-0.0769 z m 3.0809955,0.005 -0.1487377,0.31466 0.1568755,0.0733 0.1487377,-0.3142 z m 5.3324046,0.0565 -0.163657,0.0547 0.110762,0.32957 0.164109,-0.0561 z m -7.6154606,0.0258 -0.2631166,0.22695 0.1143789,0.13155 0.2617603,-0.22694 z m 0.6116782,0.0769 -0.1143788,0.13156 0.2613082,0.22876 0.1143787,-0.13156 z m 0.9141266,0.0222 -0.1930425,0.28888 0.1437646,0.0972 0.1943988,-0.28888 z m -1.9204796,0.24096 -0.1365313,0.11754 -0.037975,-0.0769 -0.155067,0.0773 0.1537106,0.31059 0.155519,-0.0769 -0.036167,-0.0728 0.1708902,-0.14737 z m 9.6607174,0.0185 -0.244129,0.24775 0.124777,0.12161 0.242772,-0.24774 z m -7.2054149,0.0308 -0.1487377,0.31285 0.1573273,0.0751 0.1487377,-0.3142 z m -1.0574394,0.0308 -0.1148308,0.13156 0.210674,0.18446 -0.056511,0.0841 0.1433127,0.0972 0.194851,-0.28888 -0.1451209,-0.0972 -0.03888,0.0583 z m 6.7799973,0.0461 -0.164108,0.0565 0.111214,0.32822 0.163656,-0.0548 z m 1.848598,0.10941 -0.110762,0.32821 0.163657,0.0565 0.111214,-0.33003 z m -10.4211332,0.10623 -0.2613082,0.2256 0.1125705,0.13156 0.2631164,-0.2274 z m 9.6901032,0.0475 -0.242772,0.2482 0.122968,0.12116 0.244581,-0.24775 z m -7.506507,0.0343 -0.1143789,0.13157 0.2613081,0.2292 0.114379,-0.13156 z m -6.0091844,0.0516 c -0.2668463,0 -0.4814762,0.21508 -0.4814762,0.48193 v 0.78257 c 0,0.26685 0.2146299,0.48193 0.4814762,0.48193 h 2.3784471 c 0.2668463,0 0.4814761,-0.21508 0.4814761,-0.48193 v -0.23599 l 0.1026245,0.14331 0.1419565,-0.10082 -0.066005,-0.0922 0.1103101,0.0276 0.04114,-0.16953 -0.1736026,-0.0421 0.1342708,-0.11663 -0.1125705,-0.13156 -0.1781235,0.15416 v -0.21881 c 0,-0.26685 -0.2146298,-0.48193 -0.4814761,-0.48193 z m 4.2767744,0.0339 -0.1555191,0.0751 0.1519023,0.31285 0.1573273,-0.0769 z m 2.1768148,0.0104 -0.1487379,0.3142 0.028029,0.0131 -0.045208,0.052 0.2599519,0.22876 0.1143787,-0.13156 -0.170438,-0.14964 0.1193518,-0.25182 z m 6.1118082,0.10081 -0.164109,0.0561 0.111215,0.32822 0.164108,-0.0565 z m -7.0055909,0.003 -0.1930425,0.28888 0.1437648,0.0972 0.1943986,-0.28843 z m -2.1270849,0.0583 -0.2631164,0.2256 0.1125705,0.13155 0.2631163,-0.22559 z m 10.6467258,0.0461 -0.111214,0.32957 0.164109,0.0547 0.112571,-0.32777 z m -0.929497,0.0326 -0.242772,0.24775 0.122968,0.12297 0.244581,-0.24775 z m -8.6444184,0.2152 -0.155519,0.0769 0.1537105,0.31103 0.1555191,-0.0769 z m 1.7260807,0.0153 -0.1487377,0.31421 0.1568753,0.0737 0.1487379,-0.31465 z m -0.960692,0.0664 -0.1943986,0.28708 0.145121,0.0976 0.1930425,-0.28889 z m 1.5226405,0.0529 -0.114379,0.13156 0.2594999,0.22921 0.1143787,-0.13156 z m 5.9395622,0.004 -0.164109,0.0547 0.04611,0.13744 -0.07369,0.0746 0.122968,0.12115 0.0122,-0.0127 0.0032,0.009 0.164109,-0.0561 -0.03075,-0.0909 0.09584,-0.0972 -0.122969,-0.12117 -0.03481,0.0353 z m -2.798892,0.019 c -0.845331,0 -1.546245,0.63188 -1.658718,1.44715 l -0.0312,0.0358 0.02261,0.0198 c -0.0013,0.0132 -0.0012,0.0269 -0.0023,0.0403 l -0.05244,0.0203 0.03526,-0.14692 -0.3363554,-0.0823 -0.041139,0.16954 0.3047095,0.0741 -0.029385,0.0113 0.061483,0.16231 0.0538,-0.0208 c 0.0293,0.8978 0.768948,1.62165 1.673638,1.62165 0.908655,0 1.650494,-0.73014 1.673639,-1.6334 l 0.03662,-0.0326 -0.03571,-0.0403 c -0.0011,-0.0643 -0.0062,-0.12749 -0.01447,-0.18989 l 0.219264,-0.22107 -0.124777,-0.12297 -0.135627,0.13834 c -0.189461,-0.71782 -0.843039,-1.25048 -1.618935,-1.25048 z m 3.977491,0.0886 -0.110763,0.32822 0.16411,0.0565 0.11257,-0.32822 z m -10.5544999,0.13156 -0.040688,0.16908 0.3381637,0.0822 0.04114,-0.16953 z m 1.3788756,0.0904 -0.1555191,0.0756 0.07369,0.15055 -0.2834605,-0.0687 -0.042949,0.16908 0.3381634,0.0823 0.02577,-0.10535 0.041141,0.0846 0.077307,-0.0384 0.042496,0.029 -0.017179,0.071 0.1098578,0.0271 -0.1356269,0.0669 0.01085,0.0221 -0.1306541,-0.0868 -0.1943988,0.28708 0.1451209,0.0972 0.1880696,-0.2812 0.1347231,0.27261 0.1555189,-0.0751 -0.1455731,-0.29612 0.1984677,0.0484 0.04114,-0.16773 -0.2034407,-0.0506 0.114379,-0.17134 -0.1433127,-0.0959 -0.1288456,0.18987 z m 2.4485212,0.0104 -0.114379,0.13156 0.2617602,0.22921 0.1143789,-0.13156 z m -1.1754349,0.009 -0.1487376,0.3142 0.1573273,0.0737 0.1487376,-0.3142 z m -2.1442643,0.0153 -0.042949,0.16727 0.3386157,0.0841 0.040688,-0.16953 z m 8.5553563,0.0258 -0.244581,0.24774 0.124777,0.12117 0.242772,-0.24775 z m -2.486045,0.0904 c 0.672964,0 1.214765,0.5418 1.214767,1.21477 2e-6,0.67296 -0.5418,1.2134 -1.214767,1.2134 -0.672966,0 -1.213412,-0.54044 -1.21341,-1.2134 2e-6,-0.67297 0.540446,-1.21477 1.21341,-1.21477 z m 2.966165,0.0118 -0.164109,0.0565 0.111214,0.32822 0.164109,-0.0547 z m -9.6950763,0.0823 -0.1419563,0.10082 0.2016324,0.2821 0.1419563,-0.10082 z m 10.5409373,0.0271 -0.113023,0.32822 0.164109,0.0565 0.113023,-0.33003 z m -6.170128,0.0823 -0.114379,0.13156 0.2613082,0.22876 0.1143785,-0.13156 z m 12.089346,0.043 4.52e-4,9e-4 h -9.04e-4 z m -14.2833404,0.008 -0.04114,0.16909 0.3368072,0.0823 0.04114,-0.16908 z m 6.6724004,0.0258 -0.244129,0.24775 0.124777,0.12116 0.24232,-0.24775 z m -6.2673275,0.0579 -0.1487376,0.31466 0.1573275,0.0751 0.08228,-0.1736 0.3056131,0.0746 0.040688,-0.16772 -0.3363552,-0.0836 -0.00181,0.008 z m 14.6838925,0.1189 c -0.266846,0 -0.481476,0.21463 -0.481476,0.48148 v 0.78301 c 0,0.26685 0.21463,0.48148 0.481476,0.48148 h 2.378447 c 0.266846,0 0.481477,-0.21463 0.481477,-0.48148 v -0.78301 c 0,-0.26685 -0.214631,-0.48148 -0.481477,-0.48148 z m -14.0771872,0.0453 -0.04114,0.16772 0.3363553,0.0836 0.04114,-0.16908 z m 6.6737572,0.004 -0.163657,0.0548 0.110762,0.32957 0.164108,-0.0565 z m -9.5599018,0.0118 -0.1419563,0.10082 0.2016324,0.2821 0.1419563,-0.10082 z m 4.4598705,0.029 -0.1148309,0.13201 0.2617608,0.22876 0.1143784,-0.13156 z m 5.6108923,0.0669 -0.11257,0.32957 0.165917,0.0547 0.110762,-0.32777 z m -6.6791811,0.0118 -0.040688,0.16953 0.336355,0.0818 0.041141,-0.16908 z m 0.5058891,0.12478 -0.041141,0.16773 0.3368072,0.0836 0.041141,-0.16908 z m -3.0054965,0.0105 -0.1930427,0.28707 0.1433128,0.0972 0.1930424,-0.28844 z m 0.796131,0.024 -0.1573275,0.0769 0.1541629,0.31103 0.155067,-0.0769 z m 0.3689057,0.0258 -0.1482856,0.3142 0.1568752,0.0737 0.1487378,-0.31465 z m -1.7545624,0.13155 -0.1419565,0.10082 0.2016323,0.28346 0.1419563,-0.10082 z m 9.4251782,0.0561 -0.164109,0.0565 0.111215,0.32821 0.151901,-0.0506 -0.03571,0.10354 0.165466,0.0565 0.111213,-0.32821 -0.164108,-0.0565 -0.07052,0.20524 z m -5.2523851,0.19168 -0.3250527,0.12478 0.061485,0.1623 0.3250527,-0.12477 z m -3.8739616,0.003 -0.1930424,0.28708 0.1243247,0.0846 0.1320105,0.18536 0.1401481,-0.10082 -0.155067,-0.21791 0.095391,-0.14241 z m 1.316035,0.0583 -0.071882,0.0358 -0.010398,-0.005 -0.00633,0.0131 -0.066909,0.033 0.026221,0.0533 -0.1017203,0.21474 0.1573276,0.0737 0.042496,-0.0899 0.029386,0.0593 0.1555191,-0.0754 -0.090418,-0.18355 0.011754,-0.0248 -0.031194,-0.0145 z m 2.7048565,0.0615 -0.2445814,0.24776 0.1247776,0.12115 0.242773,-0.24593 z m 3.6289282,0.0425 -0.12975,0.11618 0.230566,0.25995 0.130202,-0.11619 z m -4.263211,0.0208 -0.3227926,0.12433 0.061485,0.16275 0.3246008,-0.12478 z m 5.907011,0.11619 -0.164108,0.0561 0.01944,0.0574 -0.01402,-0.005 -0.113023,0.32821 0.165918,0.0565 0.04475,-0.13291 0.0081,0.0235 0.164109,-0.0565 z m -6.3921039,0.0701 -0.3246009,0.12433 0.061485,0.1623 0.3246006,-0.12433 z m -3.1917577,0.0628 -0.1930425,0.28888 0.1433125,0.0959 0.1930427,-0.28888 z m 3.9453922,0.0601 -0.244581,0.24593 0.1247771,0.12296 0.2427728,-0.24774 z m -2.1103577,0.0339 -0.1555191,0.0769 0.1537108,0.31103 0.066909,-0.033 0.056059,0.14739 0.3246009,-0.12433 -0.06284,-0.16275 -0.2323743,0.0895 z m 6.4522321,0.0258 -0.130201,0.11618 0.229209,0.2595 0.12975,-0.11619 z m -5.5824102,0.004 -0.324601,0.12433 0.063293,0.1623 0.3227924,-0.12433 z m -1.4028363,0.005 -0.1487377,0.3124 0.1573274,0.0755 0.1487376,-0.31466 z m -0.7075214,0.0358 -0.1401479,0.10081 0.2016321,0.28392 0.1401481,-0.10082 z m 9.1570889,0.19666 -0.164109,0.0547 0.110762,0.32957 0.164109,-0.0565 z m -6.1719365,0.0701 -0.2445809,0.24594 0.124777,0.12297 0.2427725,-0.24775 z m -3.8703451,0.002 -0.1930427,0.28843 0.1437648,0.0959 0.1930425,-0.28708 z m 16.3087056,0.0153 a 0.11574669,0.11574669 0 0 0 -0.02171,0.002 0.11574669,0.11574669 0 0 0 -0.01175,0.002 l 4.53e-4,9e-4 a 0.11574669,0.11574669 0 0 0 -0.01085,0.003 l -0.0023,4.5e-4 -0.81557,0.18807 a 0.11574669,0.11574669 0 0 0 -0.01175,0.002 0.11574669,0.11574669 0 0 0 0.0633,0.22243 l 0.466104,-0.10759 -1.89471,1.69127 c -0.19491,-0.71033 -0.846571,-1.23603 -1.617127,-1.23603 -0.82442,0 -1.511322,0.6015 -1.649226,1.38748 l -0.09178,-0.27171 -0.165465,0.0565 0.0425,0.12342 -0.06826,0.0611 0.211126,0.2378 -0.248649,0.23373 0.117543,0.12659 0.18174,-0.16818 c 0.0574,0.87183 0.784557,1.56604 1.670474,1.56604 0.923159,0 1.678163,-0.75319 1.678159,-1.67635 0,-0.083 -0.0081,-0.16385 -0.01989,-0.24368 l 1.983771,-1.77355 -0.13201,0.47696 a 0.11584375,0.11584375 0 0 0 0.222881,0.0629 l 0.217908,-0.78393 a 0.11574669,0.11574669 0 0 0 0,-4.5e-4 0.11574669,0.11574669 0 0 0 -0.09494,-0.1831 z m -6.760559,0.0203 -0.110762,0.32957 0.163656,0.0548 0.111215,-0.32777 z m -7.5250426,0.0271 -0.3246008,0.12478 0.061485,0.1623 0.3246009,-0.12432 z m 6.8998016,0.014 -0.12975,0.11619 0.230566,0.2595 0.129751,-0.11619 z m -6.5666111,0.0511 -0.155519,0.0769 0.1523544,0.31285 0.1568755,-0.0769 z m -1.1686533,0.029 -0.140148,0.10081 0.2016323,0.28211 0.021248,-0.0153 0.00453,0.0118 0.037072,-0.014 0.066909,0.0312 0.033455,-0.0701 0.1871655,-0.0719 -0.063293,-0.16049 -0.016275,0.007 0.00769,-0.0163 -0.1573273,-0.0755 -0.070074,0.14874 z m -4.715754,0.18898 c -0.2668463,0 -0.4814762,0.21508 -0.4814762,0.48193 v 0.78256 c 0,0.26685 0.2146299,0.48193 0.4814762,0.48193 h 2.3784471 c 0.2668463,0 0.4814761,-0.21508 0.4814761,-0.48193 v -0.27397 l 0.1880696,0.14467 0.1062412,-0.13653 -0.1532585,-0.11799 0.180384,-0.0683 -0.061485,-0.1623 -0.068266,0.0263 0.04114,-0.0606 -0.145573,-0.0972 -0.087253,0.13066 V 285.444 c 0,-0.26685 -0.2146298,-0.48193 -0.4814761,-0.48193 z m 7.0327169,0.023 -0.2441289,0.24593 0.124777,0.12297 0.2423204,-0.24775 z m 6.7049515,0.0511 -0.165918,0.0566 0.113023,0.32822 0.164108,-0.0547 z m -10.4997978,0.0122 -0.1930424,0.28889 0.1433127,0.0954 0.1948507,-0.28708 z m 1.341352,0.005 -0.3246006,0.12296 0.061484,0.1623 0.3246008,-0.12477 z m 8.2167408,0.029 -0.129749,0.11619 0.162751,0.18354 -0.0312,0.0918 0.16411,0.0565 0.06284,-0.18581 0.0023,-0.002 -0.0013,-9.6e-4 0.04747,-0.1406 -0.164108,-0.0547 -0.01583,0.0461 z m -7.777761,0.11484 -0.140148,0.10081 0.2016324,0.28165 0.1401478,-0.10082 z m 1.0954149,0.0153 -0.1555192,0.0769 0.1537108,0.31104 0.155519,-0.0769 z m -2.0212958,0.0271 -0.325053,0.12297 0.063293,0.16229 0.3232448,-0.12296 z m 0.5841006,0.0136 -0.1487377,0.31465 0.1573273,0.0732 0.1487379,-0.3142 z m 1.9905536,0.10262 -0.2423202,0.24594 0.1229685,0.12342 0.2441286,-0.24819 z m -3.0620076,0.0701 -0.3227924,0.12297 0.061484,0.16229 0.3246008,-0.12296 z m 9.5363923,0.0461 -0.12975,0.11619 0.230566,0.25995 0.12975,-0.11618 z m 0.763581,0.0583 -0.165465,0.0561 0.11257,0.32821 0.164109,-0.0565 z m -8.5842906,0.0904 -0.1401479,0.10082 0.2016321,0.2821 0.1401481,-0.10082 z m 7.4210616,0.0172 -0.111214,0.32958 0.164109,0.0565 0.110762,-0.32957 z m -6.3975292,0.0407 -0.1555191,0.0773 0.028029,0.0574 -0.1577796,0.16094 0.1229686,0.12161 0.115283,-0.11709 0.0434,0.0895 0.1555191,-0.0769 z m -1.8897373,0.0461 -0.1487378,0.31285 0.1573273,0.0751 0.1487378,-0.31421 z m 9.0336675,0.13699 -0.129749,0.11618 0.230566,0.2595 0.129749,-0.11619 z m 2.492826,0.002 c 0.672965,0 1.215218,0.53999 1.215219,1.21296 2e-6,0.67296 -0.542253,1.21477 -1.215219,1.21477 -0.672966,0 -1.212961,-0.54181 -1.212958,-1.21477 2e-6,-0.67297 0.539994,-1.21296 1.212958,-1.21296 z m -1.908273,0.16049 -0.165917,0.0548 0.113022,0.32957 0.163657,-0.0561 z m -8.4495671,0.0203 -0.1419563,0.10082 0.201632,0.2839 0.055608,-0.0393 0.077759,0.0769 0.2445809,-0.24774 -0.1247771,-0.12161 -0.1595878,0.16275 z m -2.3305255,0.0221 -0.1062414,0.13699 0.2735147,0.21338 0.1057891,-0.13834 z m 9.2814126,0.0651 -0.111213,0.32957 0.164108,0.0547 0.111215,-0.32775 z m -6.0010455,0.0153 -0.1555189,0.0769 0.1541627,0.31104 0.155519,-0.0769 z m -2.3409237,0.0479 -0.1482855,0.3142 0.1568754,0.0737 0.1487377,-0.31284 z m 9.6014932,0.0565 -0.130202,0.11618 0.231018,0.25951 0.129751,-0.11619 z m -10.1290825,0.13291 -0.1062412,0.1388 0.275323,0.21158 0.1057891,-0.13835 z m 1.8657767,0.0841 -0.2427725,0.24775 0.1229686,0.12116 0.244581,-0.24774 z m 0.3553431,0 -0.1419565,0.10082 0.2016324,0.28346 0.1419563,-0.10082 z m 0.8784113,0.14693 -0.1573273,0.0751 0.1537106,0.31285 0.155519,-0.0769 z m 5.6027544,0.01 -0.111214,0.32822 0.164109,0.0565 0.111214,-0.33002 z m -8.3966724,0.0411 -0.1487377,0.3142 0.1573273,0.0737 0.071882,-0.15145 0.1948509,0.14965 0.1057891,-0.13834 -0.2242368,-0.1727 4.521e-4,-9.6e-4 -0.00588,-0.003 -0.045661,-0.0353 -0.00769,0.0104 z m 1.1944226,0.17269 -0.2427725,0.24775 0.1229686,0.12116 0.2445809,-0.24775 z m 1.0235325,0.0547 -0.1419563,0.10082 0.2016323,0.28166 0.1419563,-0.10082 z m 8.0815653,0.0959 c -8.27e-4,0.016 -0.0019,0.0318 -0.0023,0.0479 l -0.02351,-0.0248 z m -9.7800685,0.0303 -0.1057893,0.13879 0.2644728,0.2048 -0.092226,0.094 0.1234207,0.12116 0.1722465,-0.17495 -0.056059,0.0728 0.2748709,0.21158 0.1057891,-0.13653 -0.2671852,-0.20615 0.014467,-0.0145 -0.1247771,-0.12116 -0.082733,0.0846 0.047018,-0.0606 z m 2.503224,0.0619 -0.1555191,0.0769 0.1537107,0.31059 0.155519,-0.0751 z m 5.2062715,0.0357 -0.110762,0.32958 0.163657,0.0547 0.111213,-0.32776 z m -8.4509238,0.0203 -0.1487378,0.31285 0.1573276,0.0751 0.1482856,-0.3142 z m 2.7423799,0.17949 -0.1419563,0.10082 0.2016321,0.2821 0.1419563,-0.10082 z m 7.3541519,0.029 -0.254526,0.2378 0.117995,0.12613 0.254527,-0.23554 z m -6.6213136,0.20344 -0.1568753,0.0769 0.1537106,0.31104 0.1555194,-0.0769 z m -2.7903013,0.0308 -0.2423204,0.24774 0.1229686,0.12115 0.2441286,-0.24774 z m -0.9073453,0.0276 -0.1482856,0.3142 0.1568753,0.0737 0.1487376,-0.31284 z m 8.5060782,0.003 -0.111214,0.32822 0.164109,0.0565 0.113022,-0.32821 z m -6.7185131,0.0461 -0.1062412,0.13698 0.275323,0.21158 0.1057891,-0.13653 z m 8.1502831,0.0443 -0.254527,0.2378 0.117996,0.12613 0.254527,-0.23554 z m -6.6705916,0.0393 -0.1419563,0.10081 0.2016323,0.2821 0.1419563,-0.10081 z m -2.7252003,0.21022 -0.2427724,0.24774 0.1229685,0.12161 0.2441286,-0.24639 z m 1.6587195,0.024 -0.1057894,0.13698 0.2735148,0.21339 0.1057891,-0.13834 z m 1.7260807,0.0411 -0.155519,0.0769 0.1519023,0.31104 0.1573273,-0.0751 z m 5.6298797,0.0411 -0.254527,0.23734 0.119804,0.12659 0.252719,-0.2378 z m -9.7787125,0.0222 -0.1487379,0.3142 0.1573276,0.0737 0.1487377,-0.31466 z m 8.5607815,0.0253 -0.111215,0.32822 0.16411,0.0565 0.11257,-0.33002 z m -4.7691001,0.0601 -0.1419563,0.10081 0.2016321,0.28347 0.1419566,-0.10082 z m -0.9570753,0.12794 -0.1057891,0.13834 0.275323,0.21203 0.1057893,-0.13834 z m -2.4363145,0.029 -0.2427724,0.24774 0.1229685,0.12161 0.2445807,-0.24594 z m 8.9997609,0.0909 -0.254979,0.23735 0.119804,0.12658 0.252719,-0.2378 z m -12.7417124,0.0714 c -0.2668463,0 -0.4814762,0.21509 -0.4814762,0.48193 v 0.78257 c 0,0.26685 0.2146299,0.48193 0.4814762,0.48193 h 2.3784471 c 0.2668463,0 0.4814761,-0.21508 0.4814761,-0.48193 v -0.28436 l 0.3010922,0.0421 0.02396,-0.1727 -0.1717944,-0.023 0.1220645,-0.12387 -0.083184,-0.0819 0.00453,-0.009 -0.026221,-0.0127 -0.019892,-0.0195 -0.00678,0.007 -0.1044328,-0.0498 -0.039332,0.0836 v -0.13834 c 0,-0.26685 -0.2146298,-0.48193 -0.4814761,-0.48193 z m 7.7212503,0 -0.155519,0.0773 0.1537108,0.31059 0.1555184,-0.0769 z m -4.5995669,0.0669 -0.1487376,0.3124 0.1573275,0.0755 0.1482857,-0.31465 z m 4.3161064,0.0375 -0.1419565,0.10082 0.2016323,0.28347 0.1419563,-0.10082 z m 4.3007346,0.009 -0.113023,0.32958 0.164109,0.0547 0.113023,-0.32776 z m -5.1484041,0.0135 -0.1057891,0.13834 0.274871,0.21203 0.1062411,-0.13834 z m -3.2139099,0.0823 -0.2427724,0.24775 0.1229686,0.12115 0.2445807,-0.24593 z m 6.558021,0.0118 c -0.743262,0 -1.375589,0.48846 -1.594069,1.16052 l -0.0642,0.0456 -0.03526,-0.0271 -0.1057894,0.13653 -0.135175,-0.019 -0.023958,0.1727 0.2906944,0.0406 c -0.0055,0.0547 -0.0086,0.1102 -0.0086,0.16637 2e-6,0.92315 0.753194,1.6759 1.67635,1.6759 0.923155,0 1.675897,-0.75275 1.675898,-1.6759 1e-6,-0.20313 -0.03818,-0.39733 -0.104884,-0.57778 l 0.212934,-0.19801 -0.119804,-0.12658 -0.166369,0.15506 c -0.275693,-0.54947 -0.843154,-0.92905 -1.497775,-0.92905 z m 2.426369,0.0633 -0.254527,0.23735 0.119352,0.12658 0.252719,-0.23734 z m -5.3568172,0.16049 -0.1057894,0.13834 0.2730627,0.21203 0.1062411,-0.13653 z m 0.9480332,0.0221 -0.1550669,0.0769 0.098556,0.20299 -0.1550674,-0.21836 -0.1419563,0.10082 0.2016323,0.28391 0.1311057,-0.0931 0.017631,0.0366 0.155519,-0.0769 z m 3.619435,0.14015 -0.113023,0.32822 0.165917,0.0566 0.110762,-0.32822 z m 0.408237,0.0325 -0.253171,0.23735 0.117996,0.12659 0.25317,-0.23735 z m -2.045257,0.0443 c 0.672967,0 1.214769,0.54044 1.214767,1.21341 -2e-6,0.67295 -0.541803,1.21295 -1.214767,1.21295 -0.672964,0 -1.213408,-0.54 -1.21341,-1.21295 -2e-6,-0.67297 0.540444,-1.21341 1.21341,-1.21341 z m -2.5185939,0.0804 -0.1062415,0.13653 0.2753231,0.21203 0.1057892,-0.13653 z m -4.058415,0.10941 -0.02396,0.17224 0.3435887,0.0479 0.02396,-0.17226 z m 4.8238041,0.0614 -0.1121186,0.0551 -0.026221,-0.0366 -0.1419569,0.10081 0.1338193,0.18718 -0.2070578,-0.15959 -0.1062412,0.13653 0.2753231,0.21203 0.089966,-0.11619 0.015828,0.0222 0.061933,-0.0438 0.014918,0.0303 0.1555189,-0.0769 z m -4.3075169,0.01 -0.02396,0.17271 0.3435884,0.0479 0.023509,-0.17269 z m 0.5158351,0.0719 -0.02396,0.1727 0.3435887,0.0479 0.02396,-0.1727 z m 0.5162872,0.0719 -0.02396,0.17225 0.3431366,0.0461 0.02396,-0.17044 z m 0.5158349,0.0719 -0.02396,0.17043 0.3435883,0.0479 0.023961,-0.17089 z m 0.5144787,0.0714 -0.02396,0.17089 0.3449448,0.0479 0.02396,-0.17089 z m 0.5158352,0.0719 -0.023961,0.1709 0.3453971,0.0479 0.02396,-0.17269 z m 0.5158351,0.0701 -0.023509,0.17269 0.3449449,0.0475 0.023961,-0.17225 z m 0.516287,0.0714 -0.02396,0.1727 0.3435886,0.0479 0.02396,-0.1727 z"/></g><text x="0" y="41.458334" fill="#000000" font-size="5px" font-weight="bold" font-family="'Helvetica Neue', Helvetica, Arial-Unicode, Arial, Sans-serif">Created by David Christensen</text><text x="0" y="46.458334" fill="#000000" font-size="5px" font-weight="bold" font-family="'Helvetica Neue', Helvetica, Arial-Unicode, Arial, Sans-serif">from the Noun Project</text></svg>